<svg width="22" height="12" viewBox="0 0 22 12" fill="none" xmlns="http://www.w3.org/2000/svg">
<path d="M8 9.5C8 9.89782 8.15804 10.2794 8.43934 10.5607C8.72065 10.842 9.10218 11 9.5 11C9.89782 11 10.2794 10.842 10.5607 10.5607C10.842 10.2794 11 9.89782 11 9.5C11 9.10218 10.842 8.72064 10.5607 8.43934C10.2794 8.15804 9.89782 8 9.5 8C9.10218 8 8.72065 8.15804 8.43934 8.43934C8.15804 8.72064 8 9.10218 8 9.5Z" stroke="#FFD747" stroke-width="2" stroke-linecap="round" stroke-linejoin="round"/>
<path d="M6.5 1C6.75631 0.999921 7.00836 1.06552 7.23211 1.19054C7.45587 1.31556 7.64385 1.49583 7.77813 1.71415C7.91241 1.93247 7.98851 2.18156 7.99917 2.43764C8.00982 2.69373 7.95468 2.94828 7.839 3.177L3.805 10.251C3.541 10.698 3.055 11 2.5 11C2.23202 11 1.96892 10.9283 1.73806 10.7922C1.5072 10.6561 1.31701 10.4607 1.18727 10.2262C1.05752 9.99176 0.992965 9.7268 1.0003 9.45892C1.00764 9.19104 1.08661 8.93002 1.229 8.703L5.135 1.876C5.25462 1.61451 5.44688 1.39291 5.68889 1.2376C5.93089 1.08229 6.21244 0.999818 6.5 1Z" stroke="#FF477E" stroke-width="2" stroke-linecap="round" stroke-linejoin="round"/>
<path d="M19.5003 1C19.7566 0.999921 20.0086 1.06552 20.2324 1.19054C20.4561 1.31556 20.6441 1.49583 20.7784 1.71415C20.9127 1.93247 20.9888 2.18156 20.9994 2.43764C21.0101 2.69373 20.9549 2.94828 20.8393 3.177L16.8053 10.251C16.5413 10.698 16.0553 11 15.5003 11C15.2323 11 14.9692 10.9283 14.7383 10.7922C14.5075 10.6561 14.3173 10.4607 14.1875 10.2262C14.0578 9.99176 13.9932 9.7268 14.0006 9.45892C14.0079 9.19104 14.0869 8.93002 14.2293 8.703L18.1353 1.876C18.2549 1.61451 18.4471 1.39291 18.6891 1.2376C18.9312 1.08229 19.2127 0.999818 19.5003 1Z" stroke="#47FF65" stroke-width="2" stroke-linecap="round" stroke-linejoin="round"/>
</svg>
