<?xml version="1.0" encoding="utf-8"?>
<!-- Generator: Adobe Illustrator 27.0.0, SVG Export Plug-In . SVG Version: 6.00 Build 0)  -->
<svg version="1.1" xmlns="http://www.w3.org/2000/svg" xmlns:xlink="http://www.w3.org/1999/xlink" x="0px" y="0px"
	 viewBox="0 0 3710 3710" style="enable-background:new 0 0 3710 3710;" xml:space="preserve">
<style type="text/css">
	.st0{fill:#F4F7FA;}
	.st1{clip-path:url(#SVGID_00000000218748562543240960000014735910231391654846_);}
	.st2{opacity:0.7;}
	.st3{fill:#FFD747;stroke:#FFD747;stroke-width:2;stroke-linecap:round;stroke-linejoin:round;}
	.st4{clip-path:url(#SVGID_00000119801651274294504380000003896047416414138027_);}
	.st5{fill:#47FF65;stroke:#47FF65;stroke-width:2;stroke-linecap:round;stroke-linejoin:round;}
	.st6{opacity:0.7;clip-path:url(#SVGID_00000013164427446486977800000005339991009763969441_);}
	.st7{fill:#FF477E;stroke:#FF477E;stroke-width:2;stroke-linecap:round;stroke-linejoin:round;}
	.st8{fill:url(#SVGID_00000003071673164852156940000010749138045433079229_);}
	.st9{fill:url(#SVGID_00000160173726756662526630000004690494370425053870_);}
	.st10{fill:url(#SVGID_00000174584294848037284510000005246328403352293798_);}
	.st11{fill:#D2F1FF;}
	.st12{fill:#FFFFFF;}
	.st13{fill:url(#SVGID_00000063604974459326721850000016685148993670627224_);}
	.st14{opacity:0.3;fill:url(#SVGID_00000000924498375872576380000009829965844356581266_);}
	.st15{fill:#D8DEE8;}
	.st16{opacity:0.59;fill:#D8DEE8;}
	.st17{fill:#9FC6FF;}
	.st18{font-family:'Rubik-Bold';}
	.st19{font-size:140px;}
	.st20{fill:url(#SVGID_00000001624538015776088110000014531633572992108418_);}
	.st21{fill:url(#SVGID_00000099646490167291130150000013722043648363170492_);}
	.st22{fill:url(#SVGID_00000035496863284006569810000015104959864737422219_);}
	.st23{fill:url(#SVGID_00000139259286940134756840000016547347688588825742_);}
	.st24{fill:url(#SVGID_00000159471343023190671090000009745579429859581348_);}
	.st25{fill:url(#SVGID_00000114779094540933139900000000544453098964624032_);}
	.st26{opacity:0.3;fill:url(#SVGID_00000126309624452586462490000017195329353254593155_);}
	.st27{fill:url(#SVGID_00000177462514162301428730000003447182583746166953_);}
	.st28{fill:url(#SVGID_00000114060509737478994760000008269751477766367402_);}
	.st29{fill:#FFC285;}
	.st30{fill:url(#SVGID_00000083082615173471486350000002431233239558994349_);}
	.st31{fill:url(#SVGID_00000009550988610070498060000000166892571203611297_);}
	.st32{opacity:0.3;fill:url(#SVGID_00000134228750785849016030000000284989360751095210_);}
	.st33{opacity:0.3;fill:url(#SVGID_00000090254071580256819210000014304366249008226947_);}
	.st34{fill:url(#SVGID_00000090989399390655003710000006226374396106837162_);}
	.st35{fill:url(#SVGID_00000182489748640495901470000015834131006748200353_);}
	.st36{fill:url(#SVGID_00000077302177365744470860000003676256799191659701_);}
	.st37{fill:url(#SVGID_00000158006821501150592700000000322675285551285422_);}
	.st38{fill:url(#SVGID_00000110458459963409246740000016993817802260393915_);}
	.st39{opacity:0.42;}
	.st40{fill:url(#SVGID_00000083810109508940044080000002115162626044533180_);}
	.st41{fill:url(#SVGID_00000023273581786570773970000012362709470913353644_);}
	.st42{enable-background:new    ;}
	.st43{clip-path:url(#SVGID_00000102529979035910367790000009298798463877922697_);}
	.st44{fill:#AFBDCE;}
	.st45{fill:#D2E6FF;}
	.st46{fill:#C5DFFF;}
	.st47{opacity:0.8;}
	.st48{clip-path:url(#SVGID_00000138555044832202588880000005505259043877620098_);}
	.st49{fill:#FFD747;}
	.st50{fill:#FF477E;}
	.st51{fill:#47FF65;}
</style>
<g id="Background">
</g>
<g id="Illustration">
	<path class="st0" d="M2930,2611.3c-554,708.6-1851.3,720-2210.4,326.4c-143.3-157.1-181.2-426.8-236.8-823.1
		c-26.8-190.7-30.6-344.5-32.9-450c-7.8-358.8-11.7-538.3,46-660.4c165.5-349.4,740.3-485.4,1111.8-491.7
		c25.9-0.4,52.1-0.3,78.5,0.5c435,13,925.9,194.1,1228.7,581c31.3,39.9,60.5,82,87.5,126.4C3278.7,1675,3232.2,2224.8,2930,2611.3z"
		/>
	<g>
		<g>
			<defs>
				<path id="SVGID_1_" d="M1594.7,2639.4c97.9-69.1,115.4-250.2,91.4-371.7c-28-141.9-101.3-145.6-114.4-257.7
					c-24.5-208.6,219.5-281.1,211.4-493.4c-6.6-173.6-172.1-191-170.7-383.5c1-138.9,87.8-196.7,48.8-317.9
					c-3.3-10.4-40.8-121.6-135.9-147.6c-95.9-26.2-194.3,49.7-243,110.9c-90,113.1-23.4,192.6-80.8,365.8
					c-78.2,235.8-247.9,228-269.6,413.6c-17.9,153.2,93.7,193.8,70.4,363.3c-21.6,157.4-125.6,179.5-130,286.8
					C862.3,2454.6,1395,2780.4,1594.7,2639.4z"/>
			</defs>
			<use xlink:href="#SVGID_1_"  style="overflow:visible;fill:#FFD747;"/>
			<clipPath id="SVGID_00000146491300635125760020000016375590823130295220_">
				<use xlink:href="#SVGID_1_"  style="overflow:visible;"/>
			</clipPath>
			<g style="clip-path:url(#SVGID_00000146491300635125760020000016375590823130295220_);">
				<g class="st2">
					<path class="st3" d="M1455.5,1104.6c-25.1,44.4-53.5,78.4-81,111.3c-44.3,53-82.6,98.7-88,169.4c-3.3,43.1,13.5,67.5,34.9,98.3
						c20.6,29.8,44,63.6,56.7,123.6c21.8,102.9-6.3,188.3-28.9,257c-39.5,120.2-96,185-141.3,237c-46.3,53.1-82.8,95.1-86.3,172.7
						c-4.6,102.9,52.7,186,108.2,266.4c58.6,84.9,134.4,155.1,225.5,208.6c1.6,0.9,2.1,3,1.2,4.6c-0.6,1.1-1.8,1.7-2.9,1.7
						c-0.6,0-1.2-0.1-1.7-0.5c-91.9-54-168.5-124.8-227.6-210.5c-56.1-81.3-114.1-165.4-109.4-270.5c3.6-80,40.8-122.7,87.9-176.8
						c44.9-51.6,100.9-115.8,140-234.7c22.3-67.9,50.1-152.3,28.7-253.5c-12.4-58.7-35.4-91.9-55.7-121.2
						c-21.2-30.7-39.5-57.2-36-102.7c5.6-72.8,44.5-119.4,89.6-173.2c27.3-32.7,55.6-66.4,80.3-110.3"/>
					<path class="st3" d="M1455.1,607.9c-0.6-1.8,0.4-3.7,2.2-4.2c1.8-0.6,3.7,0.4,4.2,2.2"/>
				</g>
				<g class="st2">
					<path class="st3" d="M1381.6,1660.2c-0.9,0-1.8-0.4-2.5-1.1c-1.2-1.4-1.1-3.5,0.3-4.8c155.7-139.1,228.9-268.2,262.8-352
						c36.8-90.7,36.8-149.4,36.8-149.9c0-1.9,1.5-3.4,3.3-3.4c0,0,0,0,0,0c1.8,0,3.3,1.5,3.4,3.3c0,2.4,0.1,60.2-37.1,152.1
						c-34.2,84.5-107.9,214.8-264.8,354.9C1383.2,1659.9,1382.4,1660.2,1381.6,1660.2z"/>
				</g>
				<g class="st2">
					<path class="st3" d="M1306.7,1961c-0.7,0-1.5-0.2-2.1-0.8c-86.9-71-153-151.6-196.4-239.4c-34.8-70.3-55.1-145.4-60.6-223.3
						c-9.3-132.5,28.6-228.4,29-229.3c0.7-1.7,2.7-2.6,4.4-1.9c1.7,0.7,2.6,2.7,1.9,4.4c-0.4,0.9-37.8,95.6-28.5,226.6
						c8.5,120.9,59.6,298.4,254.5,457.6c1.4,1.2,1.7,3.3,0.5,4.7C1308.6,1960.6,1307.7,1961,1306.7,1961z"/>
				</g>
				<g class="st2">
					<path class="st3" d="M1164.4,2458c-1.5,0-2.8-1-3.2-2.4c-0.5-1.8,0.5-3.7,2.3-4.2c229.6-67.4,349.3-189.8,409.3-280.6
						c64.9-98.2,75.8-181.4,75.9-182.3c0.2-1.8,1.9-3.2,3.8-2.9c1.8,0.2,3.2,1.9,2.9,3.8c-0.1,0.8-11.2,85.6-77,185.2
						c-60.6,91.7-181.5,215.4-413.1,283.3C1165.1,2458,1164.7,2458,1164.4,2458z"/>
				</g>
			</g>
			
				<use xlink:href="#SVGID_1_"  style="overflow:visible;fill:none;stroke:#FFD747;stroke-width:2;stroke-linecap:round;stroke-linejoin:round;"/>
		</g>
	</g>
	<g>
		<g>
			<defs>
				<path id="SVGID_00000000209648700942739720000010915312102488886942_" d="M2059.3,2639.4c97.9-69.1,115.4-250.2,91.4-371.7
					c-28-141.9-101.3-145.6-114.4-257.7c-24.5-208.6,219.5-281.1,211.4-493.4c-6.6-173.6-172.1-191-170.7-383.5
					c1-138.9,87.8-196.7,48.8-317.9c-3.3-10.4-40.8-121.6-135.9-147.6c-95.9-26.2-194.3,49.7-243,110.9
					c-90,113.1-23.4,192.6-80.8,365.8c-78.2,235.8-247.9,228-269.6,413.6c-17.9,153.2,93.7,193.8,70.4,363.3
					c-21.6,157.4-125.6,179.5-130,286.8C1327,2454.6,1859.7,2780.4,2059.3,2639.4z"/>
			</defs>
			<use xlink:href="#SVGID_00000000209648700942739720000010915312102488886942_"  style="overflow:visible;fill:#47FF65;"/>
			<clipPath id="SVGID_00000121256667952156194370000011801124834642121373_">
				<use xlink:href="#SVGID_00000000209648700942739720000010915312102488886942_"  style="overflow:visible;"/>
			</clipPath>
			<g style="clip-path:url(#SVGID_00000121256667952156194370000011801124834642121373_);">
				<g class="st2">
					<path class="st5" d="M1920.2,1104.6c-25.1,44.4-53.5,78.4-81,111.3c-44.3,53-82.6,98.7-88,169.4c-3.3,43.1,13.5,67.5,34.9,98.3
						c20.6,29.8,44,63.6,56.7,123.6c21.8,102.9-6.3,188.3-28.9,257c-39.5,120.2-96,185-141.3,237c-46.3,53.1-82.8,95.1-86.3,172.7
						c-4.6,102.9,52.7,186,108.2,266.4c58.6,84.9,134.4,155.1,225.5,208.6c1.6,0.9,2.1,3,1.2,4.6c-0.6,1.1-1.8,1.7-2.9,1.7
						c-0.6,0-1.2-0.1-1.7-0.5c-91.9-54-168.5-124.8-227.6-210.5c-56.1-81.3-114.1-165.4-109.4-270.5c3.6-80,40.8-122.7,87.9-176.8
						c44.9-51.6,100.9-115.8,140-234.7c22.3-67.9,50.1-152.3,28.7-253.5c-12.4-58.7-35.4-91.9-55.7-121.2
						c-21.2-30.7-39.5-57.2-36-102.7c5.6-72.8,44.5-119.4,89.6-173.2c27.3-32.7,55.6-66.4,80.3-110.3"/>
					<path class="st5" d="M1919.8,607.9c-0.6-1.8,0.4-3.7,2.2-4.2c1.8-0.6,3.7,0.4,4.2,2.2"/>
				</g>
				<g class="st2">
					<path class="st5" d="M1846.3,1660.2c-0.9,0-1.8-0.4-2.5-1.1c-1.2-1.4-1.1-3.5,0.3-4.8c155.7-139.1,228.9-268.2,262.8-352
						c36.8-90.7,36.8-149.4,36.8-149.9c0-1.9,1.5-3.4,3.3-3.4c0,0,0,0,0,0c1.8,0,3.3,1.5,3.4,3.3c0,2.4,0.1,60.2-37.1,152.1
						c-34.2,84.5-107.9,214.8-264.8,354.9C1847.9,1659.9,1847.1,1660.2,1846.3,1660.2z"/>
				</g>
				<g class="st2">
					<path class="st5" d="M1771.4,1961c-0.7,0-1.5-0.2-2.1-0.8c-86.9-71-153-151.6-196.4-239.4c-34.8-70.3-55.1-145.4-60.6-223.3
						c-9.3-132.5,28.6-228.4,29-229.3c0.7-1.7,2.7-2.6,4.4-1.9c1.7,0.7,2.6,2.7,1.9,4.4c-0.4,0.9-37.8,95.6-28.5,226.6
						c8.5,120.9,59.6,298.4,254.5,457.6c1.4,1.2,1.7,3.3,0.5,4.7C1773.3,1960.6,1772.3,1961,1771.4,1961z"/>
				</g>
				<g class="st2">
					<path class="st5" d="M1629.1,2458c-1.5,0-2.8-1-3.2-2.4c-0.5-1.8,0.5-3.7,2.3-4.2c229.6-67.4,349.3-189.8,409.3-280.6
						c64.9-98.2,75.8-181.4,75.9-182.3c0.2-1.8,1.9-3.2,3.8-2.9c1.8,0.2,3.2,1.9,2.9,3.8c-0.1,0.8-11.2,85.6-77,185.2
						c-60.6,91.7-181.5,215.4-413.1,283.3C1629.7,2458,1629.4,2458,1629.1,2458z"/>
				</g>
			</g>
			
				<use xlink:href="#SVGID_00000000209648700942739720000010915312102488886942_"  style="overflow:visible;fill:none;stroke:#47FF65;stroke-width:2;stroke-linecap:round;stroke-linejoin:round;"/>
		</g>
	</g>
	<g>
		<g>
			<g>
				<defs>
					<path id="SVGID_00000168832769416805831370000011448247842251676044_" d="M1341.3,3130.3c24.9,3.5,82.1-10.7,95.4-20.6
						c89-65.6,263.7-177.7,288.1-292c4.2-19.5-76.8-61.1-83.9-82c-45.2-39-63.3-49.7-88-107.9c-73-171.8,255.3-365.9-16-540.9
						c-198.7-128.2-403.1-104-286.5-435.2c116.6-331.2,18.8-1020.5-402.8-883.4c-242,78.7-113.5,423.2-277.3,605.9
						c-155.6,173.6-116.1,362.9,64.4,542.7c180.5,179.8,40.6,241.1-74.4,415.3c-138.1,209.1,204.1,347.4,367.5,397.8
						C1059.5,2770.6,1367.2,2962.7,1341.3,3130.3z"/>
				</defs>
				<use xlink:href="#SVGID_00000168832769416805831370000011448247842251676044_"  style="overflow:visible;fill:#FF477E;"/>
				<clipPath id="SVGID_00000121968749807982966490000006730295001961260970_">
					<use xlink:href="#SVGID_00000168832769416805831370000011448247842251676044_"  style="overflow:visible;"/>
				</clipPath>
				<g style="opacity:0.7;clip-path:url(#SVGID_00000121968749807982966490000006730295001961260970_);">
					<g>
						<path class="st7" d="M493,2412.6c224.7-10.7,569.8,82.6,769.3,208l2.8-4.5c-200.3-125.9-546.8-219.6-772.4-208.8L493,2412.6z"
							/>
						<path class="st7" d="M1455.3,2864.4l4.5-2.9c-65.8-103.3-76.8-235.9-32.8-394.1c32.3-116,92.9-242.8,180.1-377l-4.5-2.9
							c-87.5,134.6-148.3,261.9-180.7,378.4C1377.4,2625.7,1388.6,2759.8,1455.3,2864.4z"/>
					</g>
				</g>
				
					<use xlink:href="#SVGID_00000168832769416805831370000011448247842251676044_"  style="overflow:visible;fill:none;stroke:#FF477E;stroke-width:2;stroke-linecap:round;stroke-linejoin:round;"/>
			</g>
		</g>
	</g>
	<g>
		
			<linearGradient id="SVGID_00000142880980898586493570000003911438896502423429_" gradientUnits="userSpaceOnUse" x1="1637.6888" y1="3071.0107" x2="1451.8566" y2="3149.0603">
			<stop  offset="0" style="stop-color:#40447E"/>
			<stop  offset="0.9964" style="stop-color:#3C3B6B"/>
		</linearGradient>
		<path style="fill:url(#SVGID_00000142880980898586493570000003911438896502423429_);" d="M3165.7,2969.3l-2645.4-23v68.2
			c0,18.5,11.5,34.2,27.2,37l748,134.2c8.9,1.6,17.9,2,26.8,1.3l1814.6-153.1c16.2-1.4,28.7-17.1,28.7-36.2V2969.3z"/>
		<g>
			
				<linearGradient id="SVGID_00000049937826857605263430000008836959637550561956_" gradientUnits="userSpaceOnUse" x1="1389.5461" y1="2251.9856" x2="1187.8702" y2="2336.6895">
				<stop  offset="0" style="stop-color:#40447E"/>
				<stop  offset="0.9964" style="stop-color:#3C3B6B"/>
			</linearGradient>
			<path style="fill:url(#SVGID_00000049937826857605263430000008836959637550561956_);" d="M2314.1,2858.8L549.4,2983.5
				c-31.6,2.2-57.3-21.5-57.3-53V1669c0-31.5,25.7-57,57.3-57h1764.7c26,0,47,23.1,47,51.5V2804
				C2361.1,2832.4,2340.1,2857,2314.1,2858.8z"/>
			
				<linearGradient id="SVGID_00000002355070394129294290000015476363518623897520_" gradientUnits="userSpaceOnUse" x1="520.2901" y1="2297.8364" x2="2389.2761" y2="2297.8364">
				<stop  offset="0" style="stop-color:#40447E"/>
				<stop  offset="0.9964" style="stop-color:#3C3B6B"/>
			</linearGradient>
			<path style="fill:url(#SVGID_00000002355070394129294290000015476363518623897520_);" d="M2342.2,2858.8L577.5,2983.5
				c-31.6,2.2-57.3-21.5-57.3-53V1669c0-31.5,25.7-57,57.3-57h1764.7c26,0,47,23.1,47,51.5V2804
				C2389.3,2832.4,2368.2,2857,2342.2,2858.8z"/>
			<path class="st11" d="M2287.3,2778.4L643.6,2886.7c-25.7,1.7-46.6-17.8-46.6-43.5V1738.8c0-25.7,20.9-46.6,46.6-46.7l1643.6-6.8
				c21.5-0.1,38.8,18.8,38.8,42.2v1006C2326.1,2756.9,2308.7,2777,2287.3,2778.4z"/>
			<path class="st12" d="M1522.2,1646.5c0,11.7-9.1,21.3-20.3,21.3c-11.2,0-20.3-9.5-20.3-21.2c0-11.7,9.1-21.3,20.3-21.3
				C1513.1,1625.3,1522.2,1634.8,1522.2,1646.5z"/>
		</g>
		
			<linearGradient id="SVGID_00000055704957551414043450000017979179994818667157_" gradientUnits="userSpaceOnUse" x1="520.2901" y1="2988.9802" x2="3165.6702" y2="2988.9802">
			<stop  offset="0" style="stop-color:#40447E"/>
			<stop  offset="0.9964" style="stop-color:#3C3B6B"/>
		</linearGradient>
		<path style="fill:url(#SVGID_00000055704957551414043450000017979179994818667157_);" d="M2298.2,2853.2L520.3,2984.4l775.2,139.1
			c8.9,1.6,17.9,2,26.8,1.3l1843.3-155.5l-839.2-115.3C2317.1,2852.8,2307.6,2852.5,2298.2,2853.2z"/>
		
			<linearGradient id="SVGID_00000143603548482001903230000011680012986637327030_" gradientUnits="userSpaceOnUse" x1="779.7141" y1="2967.3054" x2="2717.9673" y2="2967.3054">
			<stop  offset="0" style="stop-color:#40447E"/>
			<stop  offset="0.9964" style="stop-color:#3C3B6B"/>
		</linearGradient>
		<polygon style="opacity:0.3;fill:url(#SVGID_00000143603548482001903230000011680012986637327030_);" points="779.7,2987.7 
			2259.9,2876.8 2718,2939.2 1250.6,3057.8 		"/>
	</g>
	<g>
		<path class="st12" d="M2189.9,995.5c35,0.6,63.1,28.7,63.1,63.2v1618.5c0,43.1-34.6,78.8-79.4,81.6l-14.4,0.9l-1319,80
			c-37.3,2.3-68.7-27.2-68.2-64.1c0-0.4,0-0.7,0-1.1V1036.3c0-35.3,29.4-63.8,65.3-63.2l926.9,15.4L2189.9,995.5z"/>
	</g>
	<path class="st15" d="M2068.8,1558.6l-1076.4,9.6c-16.7,0.1-30.4-13.4-30.4-30.1v-138.3c0-16.6,13.5-30.1,30.1-30.1l1076.4-0.3
		c16.6,0,30.1,13.5,30.1,30.1v129C2098.7,1545,2085.3,1558.4,2068.8,1558.6z"/>
	<path class="st15" d="M1732.8,1724.8l-643.7,10.4c-30.4,0.5-55.3-24-55.3-54.4v-3.1c0-29.8,24-54.1,53.8-54.4l643.7-7.3
		c30.3-0.3,55,24.1,55,54.4v0C1786.3,1700.1,1762.5,1724.4,1732.8,1724.8z"/>
	<g>
		<path class="st15" d="M1980.5,1720.8l-77.3,1.3c-30.1,0.5-54.7-23.7-54.7-53.8v-0.4c0-29.5,23.7-53.5,53.2-53.8l77.3-0.9
			c30-0.3,54.4,23.9,54.4,53.8v0C2033.4,1696.4,2009.9,1720.4,1980.5,1720.8z"/>
	</g>
	<path class="st15" d="M1444.3,1881.9l-354.1,8.1c-30.9,0.7-56.4-24.2-56.4-55.1v-1.7c0-30.1,24.1-54.6,54.1-55.1l354.1-6.4
		c30.8-0.6,56.1,24.3,56.1,55.1v0C1498.1,1856.8,1474.2,1881.2,1444.3,1881.9z"/>
	<g>
		<path class="st15" d="M1980.9,1869.6l-77.3,1.8c-30.2,0.7-55-23.6-55-53.8v-0.4c0-29.3,23.5-53.3,52.8-53.8l77.3-1.4
			c30.1-0.5,54.8,23.7,54.8,53.8v0C2033.4,1845.1,2010.1,1868.9,1980.9,1869.6z"/>
	</g>
	<g>
		<path class="st15" d="M1568.5,2030.7l-478.3,14.2c-30.9,0.9-56.4-23.9-56.4-54.8v-2.3c0-29.7,23.7-54.1,53.4-54.8l478.3-11.9
			c30.8-0.8,56.2,24,56.2,54.8v0C1621.7,2005.5,1598.1,2029.8,1568.5,2030.7z"/>
		<g>
			<path class="st15" d="M1981.2,2018.4l-77.3,2.3c-30.3,0.9-55.4-23.4-55.4-53.8v-0.4c0-29.2,23.3-53.1,52.5-53.8l77.3-1.9
				c30.2-0.8,55.1,23.5,55.1,53.8v0C2033.4,1993.7,2010.3,2017.5,1981.2,2018.4z"/>
		</g>
	</g>
	<path class="st15" d="M1237,2194.3l-145.6,5.3c-31.5,1.1-57.6-24.1-57.6-55.6v-0.7c0-30,23.8-54.6,53.9-55.6l145.6-4.6
		c31.4-1,57.4,24.2,57.4,55.6v0C1290.6,2168.7,1266.9,2193.2,1237,2194.3z"/>
	<g>
		<path class="st15" d="M1981.6,2167.2l-77.3,2.8c-30.5,1.1-55.7-23.3-55.7-53.8v-0.4c0-29,23.1-52.8,52.1-53.8l77.3-2.4
			c30.4-1,55.5,23.4,55.5,53.8l0,0C2033.4,2142.4,2010.5,2166.1,1981.6,2167.2z"/>
	</g>
	<g>
		<path class="st15" d="M962,1563.4v800.4c0,27.6,23,49.5,50.5,48.3l519.5-23.7l520.4-23.7c25.8-1.2,46.1-22.4,46.1-48.3v-759.9
			c0-26.8-21.8-48.5-48.7-48.3l-1039.9,6.9C983.5,1515.3,962,1536.9,962,1563.4z M2067,2286.3c0,25.9-20.4,47.1-46.2,48.3
			l-500.6,22.1l-472.8,20.9c-27.5,1.2-50.5-20.8-50.5-48.3v-733.1c0-26.5,21.4-48.1,47.9-48.3l973.4-7.8
			c26.8-0.2,48.7,21.5,48.7,48.3V2286.3z"/>
	</g>
	<g>
		<path class="st15" d="M1500.4,2459.7L980.2,2485c-10,0.5-18.1,8.6-18.1,18.1v127.9c0,9.5,8.1,16.7,18.1,16.2l520.2-29
			c9.6-0.5,17.3-8.5,17.3-17.7v-124.8C1517.7,2466.3,1510,2459.2,1500.4,2459.7z"/>
		<path class="st15" d="M2082.2,2431.4l-493.4,24c-9.5,0.5-17.2,8.3-17.2,17.6v124.5c0,9.2,7.7,16.3,17.2,15.8l493.4-27.5
			c9.1-0.5,16.4-8.2,16.4-17.3v-121.6C2098.7,2437.9,2091.3,2430.9,2082.2,2431.4z"/>
	</g>
	<path class="st16" d="M2033,1300.5l-1005.9-5.3c-36-0.2-65-29.4-65-65.3v-1c0-36.3,29.5-65.6,65.8-65.3l1005.9,6.3
		c35.9,0.2,64.9,29.4,64.9,65.3v0C2098.7,1271.4,2069.2,1300.7,2033,1300.5z"/>
	<text transform="matrix(1 8.700000e-03 -8.700000e-03 1 1245.6185 1125.3834)" class="st17 st18 st19">WillDay</text>
	<text transform="matrix(1 -8.600000e-03 8.600000e-03 1 1029.3251 1513.7953)" class="st12 st18 st19">Unlimited Plan</text>
	<g>
		
			<linearGradient id="SVGID_00000175311064814703470650000008012766438395223690_" gradientUnits="userSpaceOnUse" x1="-1076.7137" y1="1684.6892" x2="-994.1237" y2="1595.579" gradientTransform="matrix(-1 0 0 1 1514.9646 0)">
			<stop  offset="0" style="stop-color:#AA80F9"/>
			<stop  offset="0.9964" style="stop-color:#6165D7"/>
		</linearGradient>
		<path style="fill:url(#SVGID_00000175311064814703470650000008012766438395223690_);" d="M2600.1,1451.8l-30.8,6.2
			c0,0-161.8,206.5-138.7,285.1c23.1,78.6,138.7,18.5,138.7,18.5L2600.1,1451.8z"/>
		
			<linearGradient id="SVGID_00000133530268196469168270000003453529944866347438_" gradientUnits="userSpaceOnUse" x1="3490.4661" y1="2873.1575" x2="3585.5664" y2="2873.1575" gradientTransform="matrix(0.9996 2.890000e-02 -2.890000e-02 0.9996 -690.7108 -31.2392)">
			<stop  offset="0" style="stop-color:#AA80F9"/>
			<stop  offset="0.9964" style="stop-color:#6165D7"/>
		</linearGradient>
		<path style="fill:url(#SVGID_00000133530268196469168270000003453529944866347438_);" d="M2803.2,2922.2
			c5.2,4.2,6.2,14.8,6.8,21.7c0.3,3.1,0.4,4.6,0.1,5.7c-2.5,7.9-17.9,8.8-42.1,11.2c-38.2,3.9-49.5,6.9-52.5,1.2
			c-2.8-5.3,4-14,4.7-15c4.1-5.2,9.1-7,18.9-10.2c18-5.9,30.2-9.2,33.9-10.2C2796,2920.5,2799.8,2919.4,2803.2,2922.2z"/>
		
			<linearGradient id="SVGID_00000127756319412126774430000012028022517554471831_" gradientUnits="userSpaceOnUse" x1="3881.5562" y1="2650.0562" x2="3923.2783" y2="2563.7012" gradientTransform="matrix(0.9925 0.1225 -0.1225 0.9925 -757.9742 -162.6817)">
			<stop  offset="0" style="stop-color:#FFC444"/>
			<stop  offset="0.9964" style="stop-color:#F36F56"/>
		</linearGradient>
		<path style="fill:url(#SVGID_00000127756319412126774430000012028022517554471831_);" d="M2780.5,2887.3l-3.8,43.5
			c1.1,2.1,14,8.4,24.3,3l9.8-42.8L2780.5,2887.3z"/>
		
			<linearGradient id="SVGID_00000142140819504626133890000007626061427947205553_" gradientUnits="userSpaceOnUse" x1="3812.2761" y1="2265.8096" x2="3913.3137" y2="2265.8096" gradientTransform="matrix(0.9642 0.2651 -0.2651 0.9642 -677.8856 -308.9189)">
			<stop  offset="0" style="stop-color:#AA80F9"/>
			<stop  offset="0.9964" style="stop-color:#6165D7"/>
		</linearGradient>
		<path style="fill:url(#SVGID_00000142140819504626133890000007626061427947205553_);" d="M2491.1,2887.5
			c6.2,6.9,7.7,19.6,2.2,25.8c-5.3,6.1-13.3,1.5-36.1,2.2c-24.3,0.7-30.7,6.5-47.2,1.9c-6.7-1.8-18.5-6.3-18.3-11.1
			c0.2-3.4,6.2-5.1,26.2-11.8c28.5-9.5,28.4-10.1,34.4-11.1C2467.6,2881,2482.9,2878.5,2491.1,2887.5z"/>
		
			<linearGradient id="SVGID_00000014598670416547568360000014868326107785318530_" gradientUnits="userSpaceOnUse" x1="3703.8066" y1="2444.5767" x2="3746.4143" y2="2356.3882" gradientTransform="matrix(0.9802 0.1979 -0.1979 0.9802 -689.0958 -227.1835)">
			<stop  offset="0" style="stop-color:#FFC444"/>
			<stop  offset="0.9964" style="stop-color:#F36F56"/>
		</linearGradient>
		<path style="fill:url(#SVGID_00000014598670416547568360000014868326107785318530_);" d="M2475.5,2847.9l-12.2,40.6
			c0.9,2.2,13.3,9.4,24,4.8l18.1-39.4L2475.5,2847.9z"/>
		
			<linearGradient id="SVGID_00000034797418414983552760000005893853068369845131_" gradientUnits="userSpaceOnUse" x1="-915.4673" y1="2721.9526" x2="-1184.954" y2="2114.4656" gradientTransform="matrix(-1 0 0 1 1514.9646 0)">
			<stop  offset="0" style="stop-color:#AA80F9"/>
			<stop  offset="0.9964" style="stop-color:#6165D7"/>
		</linearGradient>
		<path style="fill:url(#SVGID_00000034797418414983552760000005893853068369845131_);" d="M2584,1958.6
			c-1.7,136.5-11.1,289.9-33.4,456.6c-22.1,164.8-53,313.6-86.8,444.5c15.6,4.2,31.1,8.4,46.7,12.6c39.5-36.8,89.4-94.8,113.4-176.8
			c14.9-50.9,10-77,19.4-139.6c15.1-99.6,45.6-151.8,77.2-232.1c28.4-72.2,61.9-178.1,79.9-319.7
			C2728.3,1988.9,2656.1,1973.7,2584,1958.6z"/>
		
			<linearGradient id="SVGID_00000175314971772920299000000011174855132239061633_" gradientUnits="userSpaceOnUse" x1="-915.4673" y1="2721.9529" x2="-1184.9539" y2="2114.4661" gradientTransform="matrix(-1 0 0 1 1514.9646 0)">
			<stop  offset="0" style="stop-color:#AB316D"/>
			<stop  offset="1" style="stop-color:#792D3D"/>
		</linearGradient>
		<path style="opacity:0.3;fill:url(#SVGID_00000175314971772920299000000011174855132239061633_);" d="M2572.4,2613.8
			c15.6-43.2,34.7-56.5,43.2-101.7c7.4-39.5-2.8-52.3-3.1-92.5c-0.6-80.1,39.1-106.6,52.4-172.6c7.2-35.8-39.8-126.1-82.9-204.1
			c1-28.8,1.7-56.9,2-84.3c72.1,15.1,144.3,30.3,216.4,45.4c-18,141.6-51.5,247.6-79.9,319.7c-31.6,80.3-62.1,132.5-77.2,232.1
			c-9.5,62.6-4.5,88.7-19.4,139.6c-24.1,82-73.9,140-113.4,176.8c-1.5-0.4-2.9-0.8-4.4-1.2c39.8-51.9,52.2-96,54-130.9
			C2561.9,2704.2,2552.9,2667.8,2572.4,2613.8z"/>
		
			<linearGradient id="SVGID_00000038396354036128378080000008974716670987179442_" gradientUnits="userSpaceOnUse" x1="-1458.8477" y1="2511.7944" x2="-1728.3296" y2="1904.318" gradientTransform="matrix(-0.9925 -0.1225 -0.1225 0.9925 1431.9595 108.1241)">
			<stop  offset="0" style="stop-color:#AA80F9"/>
			<stop  offset="0.9964" style="stop-color:#6165D7"/>
		</linearGradient>
		<path style="fill:url(#SVGID_00000038396354036128378080000008974716670987179442_);" d="M2734,1974.6
			c9.5,173.6,17.4,350.3,23.3,530.2c4.5,135,7.7,268.3,9.9,399.8c15.9,2,31.8,3.9,47.7,5.9c15.4-28.6,35.8-72.4,49.8-128.5
			c17-68.1,13.1-108.6,20.5-179.2c8.4-79.2,20.5-96.4,42-196.3c43.7-202.7,65.5-304.1,16.8-367.1
			C2928.2,2019.1,2878.6,1967.8,2734,1974.6z"/>
		
			<linearGradient id="SVGID_00000173857749276008035260000011720792585521911942_" gradientUnits="userSpaceOnUse" x1="-1435.0989" y1="2039.6243" x2="-1122.77" y2="1702.6383" gradientTransform="matrix(-1 0 0 1 1514.9646 0)">
			<stop  offset="0" style="stop-color:#AA80F9"/>
			<stop  offset="0.9964" style="stop-color:#6165D7"/>
		</linearGradient>
		<path style="fill:url(#SVGID_00000173857749276008035260000011720792585521911942_);" d="M2954.3,1457.2
			c-41.1-11.6-101.5-25.1-175.3-29.3c-108.9-6.2-163.4-8.9-195.3,16.2c-99.1,77.6-5.2,355.1-40.5,501
			c-29.7,122.7-30.8,124.8-30.8,124.8c-7,13.7-18.4,32.8-13.9,55.5c3.6,17.9,17.1,38.4,35.4,44.7c38.2,13.1,60-47.9,123.3-66.3
			c66.1-19.2,140.1,19,233.7,67.3c59.5,30.7,79.9,50.3,100.7,40.6c40.2-18.7,29.1-121.4,24.7-163.4
			C2998.4,1881.6,2978.4,1686.6,2954.3,1457.2z"/>
		<path class="st29" d="M2681,1740c2.9-0.6,8-19.8-4.6-25.4c-57-25.4-101.1,24.9-107,40.4c-5.9,15.5-5.9,15.5-5.9,15.5
			s28.3,2.2,45.9-3.7C2626.9,1760.9,2657.6,1745.2,2681,1740z"/>
		<g>
			<g>
				
					<linearGradient id="SVGID_00000039820961928324205610000012600108793209374121_" gradientUnits="userSpaceOnUse" x1="112.787" y1="3191.6711" x2="79.476" y2="3144.3694" gradientTransform="matrix(-0.2291 -0.9734 0.9734 -0.2291 -505.0452 2554.8499)">
					<stop  offset="0" style="stop-color:#444B8C"/>
					<stop  offset="0.9964" style="stop-color:#26264F"/>
				</linearGradient>
				<path style="fill:url(#SVGID_00000039820961928324205610000012600108793209374121_);" d="M2525.3,1812.1l100.3,5.1
					c3.8,0.2,8.4-4.6,7.5-7.8l-46.9-151.6c-0.7-2.5-3.3-4.2-6.2-4l-96.2,2.1c-3.1,0.2-4.9,6.4-4,9.4l39.9,142.6
					C2520.3,1810.2,2522.7,1812,2525.3,1812.1z"/>
				
					<linearGradient id="SVGID_00000028324180884038183130000010639320389231820687_" gradientUnits="userSpaceOnUse" x1="48.3603" y1="3278.0908" x2="127.6807" y2="3116.9714" gradientTransform="matrix(-0.2291 -0.9734 0.9734 -0.2291 -505.0452 2554.8499)">
					<stop  offset="0" style="stop-color:#311944"/>
					<stop  offset="1" style="stop-color:#893976"/>
				</linearGradient>
				<path style="fill:url(#SVGID_00000028324180884038183130000010639320389231820687_);" d="M2527.1,1808.9l100.9,4.7
					c3.9,0.2,6.5-2.6,5.6-5.8l-45.1-154.3c-0.7-2.5-3.3-4.2-6.2-4l-96.3,5.7c-3.2,0.2-5.3,3.2-4.4,6.3l40,143.1
					C2522.1,1806.9,2524.5,1808.8,2527.1,1808.9z"/>
			</g>
			
				<linearGradient id="SVGID_00000103247945034902826540000005379357619414542508_" gradientUnits="userSpaceOnUse" x1="3.4534" y1="3171.8696" x2="176.4471" y2="3171.8696" gradientTransform="matrix(-0.2291 -0.9734 0.9734 -0.2291 -505.0452 2554.8499)">
				<stop  offset="0" style="stop-color:#311944"/>
				<stop  offset="1" style="stop-color:#893976"/>
			</linearGradient>
			<path style="opacity:0.3;fill:url(#SVGID_00000103247945034902826540000005379357619414542508_);" d="M2578,1716.9
				c-3,14-15.6,11-25.9,28c-13.1,21.6-0.5,40.6-12.5,48.5c-3.7,2.4-9.8,3.9-20.9,0.9l2.9,10.2c0.7,2.4,3,4.2,5.6,4.3l100.9,4.7
				c3.9,0.2,6.5-2.6,5.6-5.8l-45.1-154.3c-0.7-2.5-3.3-4.2-6.2-4l-14.5,0.9c-1.7,5.3-2.9,11.4-2.8,18.2
				C2565.5,1691.8,2581.5,1700.5,2578,1716.9z"/>
		</g>
		<path class="st29" d="M2481.1,1705.6c-0.6-2.4,0.6-4.9,2.4-5.1c7.3-0.5,24.4-0.7,33.8,7.4c12.2,10.6,28,29.9,14.7,39.6l-12.4,9.1
			c-0.6,0.4-1.2,0.5-1.8,0.4c-4.4-1.4-23-7.2-25-8.6C2490.9,1747,2483.8,1717.3,2481.1,1705.6z"/>
		
			<linearGradient id="SVGID_00000078028163458959920100000009410086278091890053_" gradientUnits="userSpaceOnUse" x1="-1414.394" y1="2058.8137" x2="-1102.0649" y2="1721.8276" gradientTransform="matrix(-1 0 0 1 1514.9646 0)">
			<stop  offset="0" style="stop-color:#AA80F9"/>
			<stop  offset="0.9964" style="stop-color:#6165D7"/>
		</linearGradient>
		<path style="opacity:0.3;fill:url(#SVGID_00000078028163458959920100000009410086278091890053_);" d="M2564.7,2111.4
			c10.8-18.6,10.3-46.8,33.9-60.1c13.8-7.7,24.5-4.1,43.2-4.6c55.6-1.5,66.3-36.5,104.8-38.5c59.6-3.2,88.3,78,121.7,66.3
			c21.9-7.6,35.9-51.4,24.7-84.8c-15.7-46.6-69.6-40.2-140.2-103.3c-30.2-27-73.5-75.7-61.6-97.1c12.5-22.5,71.8,10.5,115.6-23.1
			c25.5-19.6,22.3-43.9,43.2-87.8c11.3-23.8,52.7-85.8,114.3-127.5c19.8,189.4,36.8,354,52.1,497.4c4.5,41.9,15.5,144.6-24.7,163.4
			c-20.9,9.7-41.2-9.9-100.7-40.6c-93.6-48.3-167.6-86.5-233.7-67.3c-63.3,18.4-85.1,79.4-123.3,66.3c-11.9-4.1-21.7-14.2-28.2-25.7
			C2539.7,2138.2,2556.6,2125.5,2564.7,2111.4z"/>
		<g>
			<path class="st29" d="M2723.4,1345c-0.1,8.3,20.5,49.8,48.3,69.9c28,20.3,63.3,19.2,73.8,21.8c24.4,6,27.5,5.9,28,8.3
				c2.6,11.8-63.8,52-132.4,42.3c-42-5.9-80.2-29.9-77.8-42.5c2.4-12.7,44.3-5.9,56.8-28.8c8.7-15.9-1.1-38.6-12.6-57.3
				C2718.7,1337.8,2712.3,1365.9,2723.4,1345z"/>
			<g>
				
					<linearGradient id="SVGID_00000016073374042813648490000011204261377172256950_" gradientUnits="userSpaceOnUse" x1="3471.8521" y1="1855.4852" x2="3392.4153" y2="1653.7303" gradientTransform="matrix(0.9052 -0.4249 0.4249 0.9052 -1113.1516 1242.0535)">
					<stop  offset="0" style="stop-color:#311944"/>
					<stop  offset="1" style="stop-color:#6B3976"/>
				</linearGradient>
				<path style="fill:url(#SVGID_00000016073374042813648490000011204261377172256950_);" d="M2649.7,1364.2
					c-14.6-7.7-25-28.2-20.9-46.2c3.5-15.5,16.7-23.7,24.6-28.7c22.9-14.3,58.3-18.7,79.5-1.4c12.6,10.2,12,44.2,12.2,50.1
					c0.2,6.7-3.2,10.7-5.3,16.9c-2.8,8.5-7.2,22-14.2,44.4c-3.3-4.1-7.7-9-13.3-13.8c-2.2-1.9-10.7-9.2-20.7-13.9
					C2671.7,1362.2,2663.6,1371.4,2649.7,1364.2z"/>
				<path class="st29" d="M2739.9,1376.5c0,0-3.5,33.7-36.3,46.7c-29.3,11.6-63.6-50.1-51.9-72.2c3.9-7.4,15.2-15,26.3-16.9
					c6.6-1.1,9.7,0.4,20.5-1.7c9.9-1.9,11.9-4,15.7-3.1c4.7,1.2,10.4,6.9,13.6,28.2c2.8-8.1,8.3-13.2,14-13.3c0.9,0,3.5,0.4,5.5,1.9
					C2754.7,1351.5,2752.5,1363.9,2739.9,1376.5z"/>
				
					<linearGradient id="SVGID_00000072269799256590681450000008088456269228962704_" gradientUnits="userSpaceOnUse" x1="3447.583" y1="1865.1447" x2="3368.0669" y2="1663.1886" gradientTransform="matrix(0.9052 -0.4249 0.4249 0.9052 -1113.1516 1242.0535)">
					<stop  offset="0" style="stop-color:#311944"/>
					<stop  offset="1" style="stop-color:#6B3976"/>
				</linearGradient>
				<path style="fill:url(#SVGID_00000072269799256590681450000008088456269228962704_);" d="M2713.7,1324.8
					c-0.9,1.7,5.7,4.8,9.5,11.9c7.3,13.8,1,37.3-12.8,45.6c-8.2,4.9-13,0.9-27.9,6.1c-9.2,3.2-16,7.8-20.1,11
					c2.8,17.5,14.3,30.9,28,33.1c14.7,2.4,26.7-8.9,31.7-13.7c3.3-3.2,14.1-13.3,15.2-28.1c1.2-15.4-9.1-19.5-5-31.5
					c2-6,6.4-10.3,7.8-20.7c0.4-2.8,0.4-5.2,0.3-6.8C2729.3,1327.5,2715,1322.4,2713.7,1324.8z"/>
			</g>
		</g>
		
			<linearGradient id="SVGID_00000152968421282847298970000004334997143033247370_" gradientUnits="userSpaceOnUse" x1="-1387.1476" y1="1845.62" x2="-1341.9419" y2="1459.3185" gradientTransform="matrix(-1 0 0 1 1514.9646 0)">
			<stop  offset="0" style="stop-color:#AA80F9"/>
			<stop  offset="0.9964" style="stop-color:#6165D7"/>
		</linearGradient>
		<path style="fill:url(#SVGID_00000152968421282847298970000004334997143033247370_);" d="M2869.8,1504.2
			c16.6-25.2,49.7-50,80.1-47.8c88.9,6.4,198.4,245.8,123.3,340.6c-57.3,72.4-234.4,75.9-396.1-49.3c0-13.9,0-27.7,0-41.6
			c79.5,13.9,145.5,23.1,194.2,29.3c30.4,3.8,60.6,7.3,66.3-4.6c8.5-18-52.3-43.8-75.5-111
			C2858.9,1610.6,2838.6,1551.6,2869.8,1504.2z"/>
	</g>
	<g class="st2">
		<path class="st15" d="M2253,979.1v311.3c0,16.5-13.4,29.9-29.9,29.8l-184.5-0.6c-8.7,0-16.9,3.7-22.6,10.3l-34.3,39.4l-63.7,73.2
			c-3.2,3.7-7.2,5.8-11.3,6.5l-0.4,0.4c-18.2,20.6-40.4,11.5-40.4-7.1v-94.6c0-16.4-13.2-29.7-29.6-29.8l0,0
			c-18.1-0.2-34.7-7.2-47.2-18.7c-14.9-13.4-24.2-33.1-24.2-54.9V971.7c0-16.7,13.7-30.1,30.3-29.8l428.4,7.4
			C2240,949.6,2253,962.9,2253,979.1z"/>
	</g>
	<g>
		<g>
			
				<linearGradient id="SVGID_00000054945699195965007120000002123281375573792696_" gradientUnits="userSpaceOnUse" x1="1292.4381" y1="2932.5181" x2="-140.1315" y2="2801.3853" gradientTransform="matrix(0.9966 -2.820000e-02 0.1345 0.99 474.0173 -191.4288)">
				<stop  offset="0" style="stop-color:#311944"/>
				<stop  offset="1" style="stop-color:#893976"/>
			</linearGradient>
			<path style="fill:url(#SVGID_00000054945699195965007120000002123281375573792696_);" d="M2003.9,2916.4
				c2.5,17.2-8.4,32.3-24.2,33.4l-1064,76c-19.3,1.3-43.4-14.6-46-33.7l-96.1-703.5c-2.6-19,17.4-35.9,36.8-35.9l1065.8-22
				c15.9-0.1,30.9,13.9,33.3,31L2003.9,2916.4z"/>
			
				<linearGradient id="SVGID_00000143577311111424916290000010390819891319663036_" gradientUnits="userSpaceOnUse" x1="786.4976" y1="2626.7612" x2="2025.275" y2="2626.7612">
				<stop  offset="3.597120e-03" style="stop-color:#FF477E"/>
				<stop  offset="1" style="stop-color:#FFD747"/>
			</linearGradient>
			<path style="fill:url(#SVGID_00000143577311111424916290000010390819891319663036_);" d="M2024.9,2917.3
				c2.5,17.3-8.5,32.4-24.4,33.6l-1077,75c-19.4,1.3-37.4-13.3-40-32.5L786.8,2286c-2.6-19.1,11.2-34.7,30.7-34.8l1078.9-23.5
				c16-0.1,31.1,14,33.5,31.2L2024.9,2917.3z"/>
			<g class="st2">
				<path class="st12" d="M1194.9,2779.5l-183.7,7.8c-8.3,0.4-16.4-5.6-18-13.3l-8.9-42.1c-1.6-7.7,3.9-14.2,12.2-14.5l184.2-6.6
					c8-0.3,15.8,5.6,17.4,13.2l8.6,41.3C1208.2,2772.7,1202.9,2779.2,1194.9,2779.5z"/>
				<path class="st12" d="M1431.1,2769.5l-175.6,7.4c-7.9,0.3-15.7-5.5-17.2-13l-8.5-41.1c-1.6-7.5,3.7-13.9,11.6-14.2l176-6.3
					c7.7-0.3,15.1,5.5,16.6,12.9l8.2,40.4C1443.8,2762.9,1438.7,2769.2,1431.1,2769.5z"/>
				<path class="st12" d="M1656.9,2759.9L1489,2767c-7.6,0.3-15-5.4-16.5-12.8l-8.1-40.2c-1.5-7.3,3.5-13.6,11.1-13.9l168.4-6
					c7.3-0.3,14.5,5.4,15.9,12.6l7.8,39.5C1669.1,2753.5,1664.3,2759.6,1656.9,2759.9z"/>
				<path class="st12" d="M1873.2,2750.8l-160.8,6.8c-7.2,0.3-14.3-5.3-15.8-12.5l-7.8-39.4c-1.4-7.2,3.4-13.3,10.6-13.5l161.2-5.8
					c7-0.3,13.9,5.3,15.3,12.4l7.5,38.7C1884.8,2744.5,1880.2,2750.5,1873.2,2750.8z"/>
			</g>
			<g class="st39">
				
					<linearGradient id="SVGID_00000171705603680056744380000011711807019051027595_" gradientUnits="userSpaceOnUse" x1="110.9607" y1="3118.1414" x2="380.9412" y2="3118.1414" gradientTransform="matrix(0.9966 -2.820000e-02 0.1345 0.99 474.0173 -191.4288)">
					<stop  offset="0" style="stop-color:#FB6FBB"/>
					<stop  offset="1" style="stop-color:#FF9085"/>
				</linearGradient>
				<path style="fill:url(#SVGID_00000171705603680056744380000011711807019051027595_);" d="M1267.9,2909l-250.6,15.4
					c-4.8,0.3-9.3-3.4-10-8.3l-5.5-39.8c-0.7-4.8,2.8-9,7.6-9.3l250.7-14.1c4.6-0.3,9,3.4,9.6,8.1l5.4,38.9
					C1275.8,2904.6,1272.5,2908.7,1267.9,2909z"/>
				
					<linearGradient id="SVGID_00000066478718755301468050000006558002362755719826_" gradientUnits="userSpaceOnUse" x1="509.5721" y1="3105.8687" x2="846.2167" y2="3105.8687" gradientTransform="matrix(0.9966 -2.820000e-02 0.1345 0.99 474.0173 -191.4288)">
					<stop  offset="0" style="stop-color:#FB6FBB"/>
					<stop  offset="1" style="stop-color:#FF9085"/>
				</linearGradient>
				<path style="fill:url(#SVGID_00000066478718755301468050000006558002362755719826_);" d="M1730.2,2881.7l-317.6,19.5
					c-4.6,0.3-8.9-3.3-9.6-8.1l-5.4-38.9c-0.7-4.7,2.6-8.8,7.2-9l317.7-17.9c4.4-0.2,8.4,3.3,9.1,7.9l5.4,37.7
					C1737.6,2877.5,1734.5,2881.5,1730.2,2881.7z"/>
			</g>
			<g>
				<path class="st0" d="M1158.4,2544.5c-5,5.6-14.3,6-20.9,0.8c-6.6-5.2-7.8-14-2.7-19.6c5.1-5.6,14.4-5.8,20.9-0.6
					C1162.2,2530.3,1163.4,2539,1158.4,2544.5z"/>
				<g>
					<path class="st0" d="M1212,2597c-1.4,0.1-2.8-0.3-4-1.3c-2.4-1.9-2.9-5.2-1-7.3c27-31.7,20.2-80.2-15.4-109.8
						c-2.4-2-2.9-5.3-1-7.3c1.8-2,5.3-2,7.7,0c39.9,33.5,47.6,88.2,17.4,124C1214.7,2596.3,1213.4,2596.9,1212,2597z"/>
					<path class="st0" d="M1194.6,2583.2c-1.4,0.1-2.9-0.4-4.1-1.3c-2.4-1.9-2.9-5.2-1-7.4c20.2-23.3,15.1-59.3-11.3-81.1
						c-2.4-2-2.9-5.3-1-7.4c1.9-2.1,5.3-2.1,7.8-0.1c31,25.7,37,68,13.4,95.5C1197.4,2582.6,1196,2583.2,1194.6,2583.2z"/>
					<path class="st0" d="M1177,2569.3c-1.4,0.1-2.9-0.4-4.1-1.3c-2.5-1.9-2.9-5.3-1-7.4c13.1-14.9,9.9-38.1-7.3-52
						c-2.5-2-2.9-5.3-1-7.4c1.9-2.1,5.4-2.1,7.9-0.1c10.6,8.7,17.4,20.3,19.2,32.8c1.7,12.5-1.7,24.5-9.8,33.8
						C1179.8,2568.6,1178.4,2569.2,1177,2569.3z"/>
				</g>
			</g>
		</g>
	</g>
	<g>
		<g>
			<g class="st42">
				<defs>
					<polygon id="SVGID_00000161626005328221058120000007001506093606957981_" class="st42" points="1700.3,2543.4 1693.9,2481.7 
						1899.1,2476.2 1905.5,2538 					"/>
				</defs>
				<clipPath id="SVGID_00000116954503643949415680000004950569650341351847_">
					<use xlink:href="#SVGID_00000161626005328221058120000007001506093606957981_"  style="overflow:visible;"/>
				</clipPath>
				<g style="clip-path:url(#SVGID_00000116954503643949415680000004950569650341351847_);">
					<g>
						<g>
							<g>
								<path class="st12" d="M1714.2,2483.7c-0.1,0-0.2,0-0.3,0c-3.8,0.1-7.1,0.9-9.7,2.2c-2.7,1.3-4.7,3-6,5.2
									c-1.3,2.2-1.8,4.7-1.5,7.4c0.3,2.8,1.2,5,2.7,6.9c1.5,1.8,3.5,3.2,6,4.3c2.5,1,5.6,1.9,9.1,2.5c2.7,0.4,4.9,0.9,6.6,1.3
									c1.7,0.5,2.9,1,3.7,1.6c0.8,0.6,1.2,1.4,1.4,2.4c0.1,1.4-0.4,2.5-1.6,3.3c-1.2,0.8-3.2,1.3-5.8,1.4c0,0-0.1,0-0.1,0
									c-1.5,0-2.8-0.1-3.9-0.4c-1.1-0.3-2.1-0.8-2.8-1.4c-0.7-0.6-1.3-1.2-1.7-1.9c-0.3-0.3-0.6-0.6-1-0.8
									c-0.4-0.2-0.9-0.3-1.5-0.3l-8.5,0.3c-0.4,0-0.7,0.2-1,0.5c-0.3,0.3-0.4,0.6-0.3,1c0.3,2.3,1.4,4.5,3.2,6.5
									c1.8,2,4.2,3.6,7.3,4.7c3,1.1,6.7,1.6,11.1,1.5c0.1,0,0.2,0,0.4,0c4-0.1,7.5-0.9,10.4-2.1c2.9-1.3,5.1-3.1,6.6-5.3
									c1.5-2.2,2.1-4.9,1.8-7.9c-0.3-2.7-1.2-5-2.5-6.7c-1.4-1.8-3.4-3.2-6.1-4.2c-2.7-1-6.1-1.9-10.3-2.5c-2.5-0.4-4.6-0.9-6-1.3
									c-1.5-0.4-2.6-1-3.2-1.6c-0.7-0.6-1.1-1.4-1.2-2.3c-0.2-1.4,0.3-2.5,1.3-3.2c1-0.7,2.5-1.1,4.5-1.2c0,0,0.1,0,0.1,0
									c1.8,0,3.3,0.3,4.5,0.9c1.2,0.7,2,1.5,2.4,2.5c0.3,0.4,0.7,0.7,1,0.8c0.4,0.2,0.8,0.2,1.2,0.2c0,0,0,0,0.1,0l8.9-0.3
									c0.5,0,0.8-0.2,1-0.5c0.2-0.3,0.3-0.6,0.3-1c-0.2-1.4-0.8-2.9-1.8-4.3c-1-1.5-2.4-2.8-4.2-4.1c-1.8-1.3-3.9-2.3-6.3-3
									C1719.9,2483.9,1717.2,2483.6,1714.2,2483.7"/>
								<path class="st12" d="M1754.3,2482.2l-7.8,0.3c-0.5,0-0.8,0.2-1.1,0.5c-0.3,0.3-0.4,0.7-0.4,1.2l1.2,11l-5.3,0.2
									c-0.5,0-0.9,0.2-1.2,0.5c-0.3,0.3-0.4,0.7-0.4,1.2l0.6,5.4c0.1,0.5,0.3,0.9,0.6,1.2c0.4,0.3,0.8,0.4,1.3,0.4l5.3-0.2
									l1.4,12.8c0.3,3.1,1.2,5.6,2.5,7.5c1.3,1.9,3.1,3.3,5.3,4.1c2.1,0.8,4.6,1.2,7.4,1.1c0.1,0,0.2,0,0.2,0l6.3-0.2
									c0.5,0,0.9-0.2,1.2-0.5c0.3-0.3,0.4-0.7,0.3-1.2l-0.7-5.8c-0.1-0.5-0.3-0.9-0.6-1.2c-0.4-0.3-0.8-0.4-1.3-0.4l-5.2,0.2
									c0,0-0.1,0-0.1,0c-1.4,0-2.4-0.4-3-1.2c-0.7-0.9-1.1-2.1-1.3-3.6l-1.3-11.9l8.5-0.3c0.5,0,0.9-0.2,1.2-0.5
									c0.3-0.3,0.4-0.7,0.4-1.2l-0.6-5.4c-0.1-0.5-0.3-0.9-0.6-1.2c-0.4-0.3-0.8-0.4-1.3-0.4l-8.5,0.3l-1.2-11
									c-0.1-0.5-0.3-0.9-0.6-1.2C1755.2,2482.4,1754.8,2482.2,1754.3,2482.2"/>
								<path class="st12" d="M1798,2493.5l-3,0.1c-2.1,0.1-4,0.5-5.6,1.3c-1.6,0.8-2.9,1.9-3.9,3.4l-0.3-2.7c0-0.4-0.3-0.8-0.6-1.2
									s-0.8-0.5-1.3-0.5c0,0,0,0,0,0l-7.8,0.3c-0.5,0-0.9,0.2-1.2,0.5c-0.3,0.3-0.4,0.7-0.3,1.2l3.5,31.4c0,0.4,0.3,0.8,0.6,1.2
									c0.4,0.3,0.8,0.5,1.3,0.5l8.4-0.3c0.5,0,0.9-0.2,1.2-0.5c0.3-0.3,0.4-0.7,0.4-1.2l-1.9-17.1c-0.2-1.8,0.1-3.3,1-4.3
									c0.9-1,2.3-1.6,4.1-1.7l6.6-0.2c0.5,0,0.9-0.2,1.2-0.5c0.3-0.4,0.4-0.7,0.3-1.2l-0.8-6.9c-0.1-0.5-0.3-0.9-0.6-1.2
									C1798.9,2493.6,1798.5,2493.4,1798,2493.5"/>
								<path class="st12" d="M1814.2,2492.9l-8,0.3c-0.5,0-0.9,0.2-1.2,0.5c-0.3,0.3-0.4,0.7-0.3,1.2l3.5,31.4
									c0,0.4,0.2,0.8,0.6,1.1c0.3,0.3,0.8,0.5,1.2,0.5c0,0,0,0,0,0l8-0.3c0.5,0,0.9-0.2,1.2-0.5c0.3-0.3,0.4-0.7,0.3-1.2
									l-3.5-31.4c-0.1-0.5-0.3-0.9-0.6-1.2C1815.1,2493,1814.7,2492.9,1814.2,2492.9 M1812.7,2478.5l-8.1,0.3
									c-0.5,0-0.9,0.2-1.2,0.5c-0.3,0.3-0.4,0.7-0.3,1.2l0.7,6c0.1,0.5,0.3,0.9,0.6,1.2c0.3,0.3,0.8,0.4,1.3,0.4l8.1-0.3
									c0.5,0,0.8-0.2,1.1-0.5c0.3-0.3,0.4-0.7,0.4-1.2l-0.7-6c0-0.4-0.3-0.8-0.6-1.2C1813.5,2478.7,1813.1,2478.5,1812.7,2478.5"
									/>
								<path class="st12" d="M1844.6,2518.4c-1.4,0-2.5-0.2-3.5-0.8c-1-0.6-1.7-1.3-2.3-2.3c-0.6-0.9-0.9-2-1.1-3.1
									c-0.1-0.9-0.3-1.7-0.4-2.5c-0.1-0.8-0.2-1.6-0.2-2.5c0-1.2,0.1-2.3,0.4-3.4c0.3-1,0.9-1.9,1.7-2.6c0.8-0.7,2-1,3.4-1.1
									c0,0,0,0,0.1,0c1.5,0,2.7,0.2,3.6,0.8c0.9,0.6,1.6,1.4,2.1,2.5c0.5,1.1,0.9,2.2,1.1,3.5c0.2,1.4,0.4,2.8,0.5,4.1
									c0.1,1.3-0.1,2.5-0.3,3.6c-0.3,1.1-0.8,2-1.6,2.6C1847.4,2518,1846.2,2518.3,1844.6,2518.4
									C1844.7,2518.4,1844.6,2518.4,1844.6,2518.4 M1845.5,2491.1c-0.1,0-0.2,0-0.2,0c-2.5,0.1-4.5,0.6-6.1,1.6
									c-1.6,1-2.9,2.2-3.8,3.5l-0.3-2.4c-0.1-0.5-0.3-0.9-0.6-1.2c-0.4-0.3-0.8-0.4-1.2-0.4l-7.6,0.3c-0.5,0-0.9,0.2-1.2,0.5
									c-0.3,0.3-0.4,0.7-0.3,1.2l4.9,44.1c0,0.4,0.3,0.8,0.6,1.2c0.4,0.3,0.8,0.5,1.3,0.5l8.3-0.3c0.5,0,0.9-0.2,1.2-0.5
									c0.3-0.3,0.4-0.7,0.3-1.2l-1.6-14.8c1.2,1.4,2.7,2.4,4.5,3.2c1.7,0.7,3.6,1,5.7,1c0.1,0,0.1,0,0.2,0
									c2.3-0.1,4.2-0.5,5.9-1.3c1.6-0.8,3-1.9,4.1-3.3s1.8-3,2.3-5c0.5-1.9,0.6-4.1,0.4-6.5c0-0.9-0.1-1.7-0.2-2.5
									c-0.1-0.8-0.2-1.6-0.3-2.5c-0.4-2.5-1-4.7-1.9-6.6c-0.9-1.9-2-3.5-3.4-4.8c-1.4-1.3-3-2.3-4.8-2.9
									C1849.6,2491.4,1847.7,2491.1,1845.5,2491.1"/>
								<path class="st12" d="M1878.6,2504.5l0-0.1c-0.2-1.5-0.1-2.7,0.3-3.8c0.3-1.1,0.9-1.9,1.7-2.5c0.8-0.6,1.8-0.9,2.9-1
									c0,0,0,0,0.1,0c1.2,0,2.3,0.2,3.2,0.8c0.9,0.6,1.7,1.3,2.2,2.4c0.6,1,0.9,2.3,1.1,3.8l0,0.1L1878.6,2504.5 M1882.9,2489.8
									c-0.1,0-0.2,0-0.3,0c-3.5,0.1-6.4,0.9-8.9,2.3c-2.4,1.4-4.3,3.4-5.4,6c-1.2,2.6-1.6,5.6-1.4,9.1c0,0.3,0.1,0.6,0.1,1.1
									c0.1,0.5,0.1,0.9,0.1,1.2c0.8,5.6,2.9,9.8,6.4,12.5c3.4,2.7,7.7,4,12.9,3.8c0.1,0,0.2,0,0.3,0c2.8-0.1,5.1-0.5,7.1-1.3
									c2-0.7,3.6-1.7,4.9-2.8c1.3-1.1,2.2-2.2,2.8-3.3c0.6-1.1,0.9-2,0.8-2.8c0-0.4-0.2-0.8-0.5-1.1c-0.3-0.2-0.7-0.4-1.1-0.4
									c0,0,0,0,0,0l-8.4,0.3c-0.5,0-0.9,0.1-1.2,0.2c-0.2,0.1-0.5,0.4-0.9,0.9c-0.2,0.3-0.5,0.6-0.8,1c-0.4,0.4-0.8,0.7-1.4,1.1
									c-0.6,0.3-1.3,0.5-2.2,0.5c0,0-0.1,0-0.1,0c-1.2,0-2.2-0.3-3.1-0.8c-0.9-0.6-1.6-1.4-2.2-2.5c-0.5-1.1-0.9-2.2-1.1-3.5
									c0-0.1,0-0.2,0-0.3c0-0.1,0-0.2,0-0.2l21.7-0.8c0.5,0,0.9-0.2,1.2-0.5c0.3-0.3,0.4-0.7,0.3-1.2l-0.2-1.6
									c-0.4-3.4-1.4-6.5-3-9.1c-1.6-2.6-3.8-4.7-6.6-6.1C1890,2490.4,1886.8,2489.7,1882.9,2489.8"/>
							</g>
						</g>
					</g>
				</g>
			</g>
		</g>
	</g>
	<g>
		<path class="st44" d="M2398,678.7l-539.8-33.1c-39.6-2-71.9,28.9-71.9,69.2v504.3c0,40.3,32.3,73.2,71.9,73.6l30,0.3v124.2
			c0,18.6,22.1,27.7,40.3,7.1l112.9-129.8l356.6,1.1c33.3,0.3,60.3-29.2,60.3-65.9V748.2C2458.3,711.5,2431.4,680.4,2398,678.7z"/>
		<path class="st45" d="M1905.4,1404v-149.7l175,1.9l-140.3,161.2C1928,1431.3,1905.4,1422.6,1905.4,1404z"/>
		<path class="st46" d="M2415.1,1282.3l-539.8-2.8c-39.6-0.4-71.9-33.3-71.9-73.6V701.6c0-40.3,32.3-71.3,71.9-69.2l539.8,33.1
			c33.3,1.7,60.3,32.9,60.3,69.6v481.3C2475.4,1253.1,2448.5,1282.6,2415.1,1282.3z"/>
		<path class="st17" d="M1824,1219.5V689.3c0-21.4,17.2-38,38.3-36.9l563.9,32.6c17.8,0.9,32.1,17.5,32.1,37.1v506.2
			c0,19.6-14.4,35.3-32.1,35.1l-563.9-4.7C1841.1,1258.5,1824,1240.9,1824,1219.5z"/>
		<g>
			<g>
				<g>
					<path class="st12" d="M2186.5,1029c0-9.6-2.3-17.3-6.9-22.9c-4.6-5.6-12.7-11-24.3-16.3c-11.6-5.2-22.3-10.5-32.2-15.8
						c-9.9-5.3-18.4-11.4-25.5-18.2c-7.2-6.8-12.6-14.7-16.5-23.5c-3.8-8.8-5.7-19.5-5.7-31.9c0-20.8,6.8-37.6,20.4-50.5
						c13.6-12.9,31.6-20,54.2-21.3v-38.7l28.2,1.2v39.3c21.6,4.1,38.4,14,50.7,29.5c12.2,15.5,18.3,34.7,18.3,57.8l-59.5-2
						c0-12.7-2.4-22.5-7.1-29.5c-4.7-7-11.4-10.7-20.2-11c-7.8-0.3-13.9,2-18.2,7c-4.3,4.9-6.5,11.8-6.5,20.8
						c0,9.1,2.5,16.3,7.5,21.8c5,5.5,13,10.8,24,16c11,5.2,21.3,10.5,31,16c9.7,5.5,18.1,11.6,25.1,18.4c7,6.8,12.5,14.6,16.5,23.5
						c4,8.9,6,19.4,6,31.7c0,20.8-6.3,37.6-19,50.4c-12.7,12.9-30.1,20.1-52.1,21.9v36.8l-28.2-0.5v-37c-25.9-3.4-45.8-13-59.7-28.8
						c-13.9-15.9-20.9-36.5-20.9-62l60.3,1.6c0,14,3,24.7,9,32.1c6,7.4,14.5,11.3,25.5,11.5c8,0.2,14.3-2.1,18.9-6.9
						C2184.2,1044.4,2186.5,1037.7,2186.5,1029z"/>
				</g>
				<path class="st12" d="M2351.5,763.7c3.1,0.1,5.7,2.9,5.7,6.2v401.6c0,3.3-2.5,5.9-5.7,5.9l-394-6.5c-3.3-0.1-6-2.8-6-6.2V752
					c0-3.4,2.7-6,6-5.8L2351.5,763.7L2351.5,763.7z M2351.5,740.9l-394-18.1c-16-0.7-29,11.9-29,28.2v413.2c0,16.3,13,29.7,29,30
					l394,5.9c15.1,0.2,27.4-12.4,27.4-28.3v-401C2378.9,755,2366.7,741.6,2351.5,740.9L2351.5,740.9z"/>
			</g>
		</g>
	</g>
	<g>
		<path class="st3" d="M1095.8,1115.4c0,4.7,1.9,9.3,5.2,12.6c3.3,3.3,7.9,5.2,12.6,5.2s9.3-1.9,12.6-5.2s5.2-7.9,5.2-12.6
			s-1.9-9.3-5.2-12.6c-3.3-3.3-7.9-5.2-12.6-5.2s-9.3,1.9-12.6,5.2C1097.7,1106.2,1095.8,1110.7,1095.8,1115.4z"/>
		<path class="st7" d="M1101.4,1014.3c3,0,6,0.8,8.7,2.3c2.7,1.5,4.9,3.6,6.5,6.2c1.6,2.6,2.5,5.6,2.6,8.6c0.1,3-0.5,6.1-1.9,8.8
			l-48,84.2c-3.1,5.3-8.9,8.9-15.5,8.9c-3.2,0-6.3-0.9-9.1-2.5s-5-3.9-6.6-6.7c-1.5-2.8-2.3-5.9-2.2-9.1c0.1-3.2,1-6.3,2.7-9
			l46.5-81.2c1.4-3.1,3.7-5.7,6.6-7.6C1094.6,1015.3,1098,1014.3,1101.4,1014.3z"/>
		<path class="st5" d="M1209.3,1014.3c3,0,6,0.8,8.7,2.3c2.7,1.5,4.9,3.6,6.5,6.2c1.6,2.6,2.5,5.6,2.6,8.6c0.1,3-0.5,6.1-1.9,8.8
			l-48,84.2c-3.1,5.3-8.9,8.9-15.5,8.9c-3.2,0-6.3-0.9-9.1-2.5c-2.7-1.6-5-3.9-6.6-6.7c-1.5-2.8-2.3-5.9-2.2-9.1
			c0.1-3.2,1-6.3,2.7-9l46.5-81.2c1.4-3.1,3.7-5.7,6.6-7.6C1202.5,1015.3,1205.9,1014.3,1209.3,1014.3z"/>
	</g>
	<g class="st47">
		<g>
			<g class="st42">
				<defs>
					<polygon id="SVGID_00000048502851502007849160000001510759159888789403_" class="st42" points="967.7,2576.1 963,2511.4 
						1080.8,2504.7 1085.5,2569.4 					"/>
				</defs>
				<clipPath id="SVGID_00000074427435384729643720000005115040489335678399_">
					<use xlink:href="#SVGID_00000048502851502007849160000001510759159888789403_"  style="overflow:visible;"/>
				</clipPath>
				<g style="clip-path:url(#SVGID_00000074427435384729643720000005115040489335678399_);">
					<g>
						<g>
							<g>
								<path class="st49" d="M1018.8,2550.3c-0.2,0-0.4,0-0.5,0c-2,0.2-3.9,1.3-5.1,2.8c-1.2,1.6-1.8,3.5-1.5,5.4
									c0.3,1.9,1.4,3.7,3,4.9c1.5,1.1,3.3,1.6,5.2,1.5c0.2,0,0.4,0,0.5,0c2-0.2,3.9-1.3,5.1-2.8c1.2-1.6,1.8-3.5,1.5-5.4
									c-0.3-1.9-1.3-3.7-3-4.9C1022.5,2550.8,1020.7,2550.2,1018.8,2550.3"/>
								<path class="st12" d="M1019.9,2565c-1.8,0.1-3.7-0.4-5.2-1.5c-1.6-1.2-2.7-2.9-3-4.9c-0.3-1.9,0.3-3.9,1.5-5.4
									c1.2-1.5,3.1-2.6,5.1-2.8c0.2,0,0.3,0,0.5,0c1.8-0.1,3.7,0.4,5.2,1.5c1.6,1.2,2.7,2.9,3,4.9c0.3,1.9-0.3,3.9-1.5,5.4
									c-1.2,1.5-3.1,2.6-5.1,2.8C1020.3,2565,1020.1,2565,1019.9,2565 M1018.4,2544.6c-0.3,0-0.6,0-0.9,0.1c-3.6,0.4-6.8,2.2-9,5
									c-2.2,2.8-3.2,6.2-2.7,9.7c0.5,3.5,2.4,6.6,5.3,8.7c2.6,1.9,5.9,2.9,9.2,2.7c0.3,0,0.6,0,0.9-0.1c3.6-0.4,6.8-2.2,9-5
									c2.2-2.8,3.2-6.2,2.7-9.7c-0.5-3.5-2.4-6.6-5.3-8.7C1025,2545.4,1021.7,2544.4,1018.4,2544.6"/>
								<path class="st50" d="M995.3,2518.3c-0.2,0-0.4,0-0.5,0c-1.5,0.2-2.8,0.8-4,1.7c-1.1,0.9-1.9,2.1-2.4,3.4l-15.1,35.7
									c-0.6,1.2-0.8,2.5-0.6,3.8c0.1,1.3,0.7,2.6,1.5,3.6c0.8,1.1,1.9,1.9,3.2,2.4c1.1,0.5,2.3,0.7,3.5,0.6c0.2,0,0.3,0,0.5,0
									c2.8-0.4,5.1-2.1,6.1-4.5l15.5-36.9c0.4-1.2,0.5-2.5,0.3-3.7c-0.2-1.2-0.8-2.4-1.6-3.4c-0.8-1-1.9-1.7-3.2-2.2
									C997.5,2518.5,996.4,2518.3,995.3,2518.3"/>
								<path class="st12" d="M980.9,2569.6c-1.2,0.1-2.4-0.1-3.5-0.6c-1.3-0.5-2.4-1.3-3.2-2.4c-0.8-1.1-1.3-2.3-1.5-3.6
									c-0.2-1.3,0.1-2.6,0.6-3.8l15.1-35.7c0.4-1.3,1.2-2.5,2.4-3.4c1.1-0.9,2.5-1.5,4-1.7c0.2,0,0.3,0,0.5,0
									c1.1-0.1,2.3,0.1,3.3,0.5c1.2,0.5,2.3,1.2,3.2,2.2c0.8,1,1.4,2.1,1.6,3.4c0.2,1.2,0.1,2.5-0.3,3.7l-15.5,36.9
									c-1,2.3-3.3,4.1-6.1,4.5C981.3,2569.6,981.1,2569.6,980.9,2569.6 M994.9,2512.6c-0.3,0-0.6,0-0.9,0.1c-2.6,0.3-5,1.3-7,3
									c-1.9,1.5-3.3,3.6-4.1,5.9l-15,35.3c-1,2.1-1.3,4.4-1.1,6.7c0.3,2.3,1.2,4.6,2.6,6.4c1.5,1.9,3.4,3.4,5.7,4.3
									c2,0.8,4.1,1.2,6.2,1c0.3,0,0.6-0.1,0.9-0.1c4.8-0.6,8.9-3.6,10.8-7.9l0-0.1l15.6-36.9c0-0.1,0.1-0.2,0.1-0.3
									c0.8-2.1,0.9-4.4,0.5-6.6c-0.4-2.2-1.4-4.3-2.9-6c-1.5-1.7-3.4-3.1-5.6-3.9C998.9,2512.8,996.9,2512.5,994.9,2512.6"/>
								<path class="st51" d="M1067.6,2511.2c-0.2,0-0.3,0-0.5,0c-1.5,0.2-2.8,0.8-4,1.7c-1.1,0.9-1.9,2.1-2.4,3.4l-15.1,35.7
									c-0.6,1.2-0.8,2.5-0.6,3.8c0.1,1.3,0.7,2.6,1.5,3.6c0.8,1.1,1.9,1.9,3.2,2.4c1.1,0.5,2.3,0.7,3.5,0.6c0.2,0,0.3,0,0.5,0
									c2.8-0.4,5.1-2.1,6.1-4.5l15.5-36.9c0.4-1.2,0.5-2.5,0.3-3.7c-0.2-1.2-0.8-2.4-1.6-3.4c-0.8-1-1.9-1.7-3.2-2.2
									C1069.9,2511.3,1068.7,2511.1,1067.6,2511.2"/>
								<path class="st12" d="M1053.3,2562.4c-1.2,0.1-2.4-0.1-3.5-0.6c-1.3-0.5-2.4-1.3-3.2-2.4c-0.8-1.1-1.3-2.3-1.5-3.6
									c-0.2-1.3,0.1-2.6,0.6-3.8l15.1-35.7c0.4-1.3,1.2-2.5,2.4-3.4c1.1-0.9,2.5-1.5,4-1.7c0.2,0,0.4,0,0.5,0
									c1.1-0.1,2.3,0.1,3.3,0.5c1.2,0.5,2.3,1.2,3.2,2.2c0.8,1,1.4,2.1,1.6,3.4c0.2,1.2,0.1,2.5-0.3,3.7l-15.5,36.9
									c-1,2.3-3.3,4.1-6.1,4.5C1053.6,2562.4,1053.4,2562.4,1053.3,2562.4 M1067.2,2505.5c-0.3,0-0.6,0-0.9,0.1
									c-2.6,0.3-5,1.3-7,3c-1.9,1.5-3.3,3.6-4.1,5.9l-15,35.3c-1,2.1-1.3,4.4-1.1,6.7c0.3,2.3,1.2,4.6,2.7,6.4
									c1.5,1.9,3.4,3.4,5.7,4.3c2,0.8,4.1,1.2,6.2,1c0.3,0,0.6,0,0.9-0.1c4.8-0.6,8.9-3.6,10.8-7.9l0-0.1l15.5-36.9
									c0-0.1,0.1-0.2,0.1-0.3c0.8-2.1,0.9-4.4,0.5-6.6c-0.4-2.2-1.4-4.3-2.9-6c-1.5-1.7-3.4-3.1-5.6-3.9
									C1071.3,2505.7,1069.2,2505.4,1067.2,2505.5"/>
							</g>
						</g>
					</g>
				</g>
			</g>
		</g>
	</g>
</g>
</svg>
